{"title":"True.Blood.S05E05.720p.Xvid.(Overloadextreme.com)","uid":7428404,"size":503565882,"categoryP":"video","categoryS":"hd___tv_shows","magnet":"?xt=urn:btih:c30b722771b5c83a1cec79ac53c8dd98251fdfff&amp;dn=True.Blood.S05E05.720p.Xvid.%28Overloadextreme.com%29&amp;tr=udp%3A%2F%2Ftracker.openbittorrent.com%3A80&amp;tr=udp%3A%2F%2Fopen.demonii.com%3A1337&amp;tr=udp%3A%2F%2Ftracker.coppersurfer.tk%3A6969&amp;tr=udp%3A%2F%2Fexodus.desync.com%3A6969","seeders":1,"leechers":0,"uploader":"pspxxx","files":1,"time":1341873234,"description":"Format                                   : AVI\nFormat/Info                              : Audio Video Interleave\nFile size                                : 480 MiB\nDuration                                 : 50mn 4s\nOverall bit rate                         : 1 341 Kbps\nWriting application                      : Lavf53.18.0\n\nVideo\nID                                       : 0\nFormat                                   : xvid\nCodec ID                                 : xvid\nDuration                                 : 50mn 4s\nBit rate                                 : 1 200 Kbps\nWidth                                    : 720 pixels\nHeight                                   : 402 pixels\nDisplay aspect ratio                     : 16:9\nFrame rate                               : 29.970 fps\nBits/(Pixel*Frame)                       : 0.138\nStream size                              : 430 MiB (89%)\n\nAudio\nID                                       : 1\nFormat                                   : MPEG Audio\nFormat version                           : Version 1\nFormat profile                           : Layer 3\nMode                                     : Joint stereo\nMode extension                           : MS Stereo\nCodec ID                                 : 55\nCodec ID/Hint                            : MP3\nDuration                                 : 50mn 4s\nBit rate mode                            : Constant\nBit rate                                 : 128 Kbps\nChannel(s)                               : 2 channels\nSampling rate                            : 44.1 KHz\nCompression mode                         : Lossy\nStream size                              : 45.8 MiB (10%)\nAlignment                                : Aligned on interleaves\nInterleave, duration                     : 26 ms (0.78 video frame)","torrent":{"xt":"urn:btih:c30b722771b5c83a1cec79ac53c8dd98251fdfff","amp;dn":"True.Blood.S05E05.720p.Xvid.%28Overloadextreme.com%29","amp;tr":["udp%3A%2F%2Ftracker.openbittorrent.com%3A80","udp%3A%2F%2Fopen.demonii.com%3A1337","udp%3A%2F%2Ftracker.coppersurfer.tk%3A6969","udp%3A%2F%2Fexodus.desync.com%3A6969"],"infoHash":"c30b722771b5c83a1cec79ac53c8dd98251fdfff","infoHashBuffer":{"type":"Buffer","data":[195,11,114,39,113,181,200,58,28,236,121,172,83,200,221,152,37,31,223,255]},"announce":[],"urlList":[]}}